{
  "accessors": [
    {
      "bufferView": 1,
      "componentType": 5126,
      "count": 3295,
      "max": [
        1.0153299570083618,
        1.0158100128173828,
        0.97500002384185791
      ],
      "min": [
        -1.0153299570083618,
        -1.0158100128173828,
        -0.97500002384185791
      ],
      "type": "VEC3"
    },
    {
      "bufferView": 1,
      "byteOffset": 39540,
      "componentType": 5126,
      "count": 3295,
      "max": [
        0.99995416402816772,
        1,
        0.9998590350151062
      ],
      "min": [
        -0.99995416402816772,
        -1,
        -0.98599642515182495
      ],
      "type": "VEC3"
    },
    {
      "bufferView": 0,
      "componentType": 5125,
      "count": 18930,
      "max": [
        3294
      ],
      "min": [
        0
      ],
      "type": "SCALAR"
    },
    {
      "bufferView": 1,
      "byteOffset": 79080,
      "componentType": 5126,
      "count": 1487,
      "max": [
        0.99408000707626343,
        0.97747999429702759,
        1.0163199901580811
      ],
      "min": [
        -0.98752999305725098,
        -0.97747999429702759,
        -1.0163199901580811
      ],
      "type": "VEC3"
    },
    {
      "bufferView": 1,
      "byteOffset": 96924,
      "componentType": 5126,
      "count": 1487,
      "max": [
        0.99350839853286743,
        0.99133592844009399,
        1
      ],
      "min": [
        -0.99664002656936646,
        -0.99133592844009399,
        -1
      ],
      "type": "VEC3"
    },
    {
      "bufferView": 0,
      "byteOffset": 75720,
      "componentType": 5125,
      "count": 7950,
      "max": [
        1486
      ],
      "min": [
        0
      ],
      "type": "SCALAR"
    }
  ],
  "asset": {
    "generator": "Sketchfab (OSG glTF plugin)",
    "version": "2.0"
  },
  "bufferViews": [
    {
      "buffer": 0,
      "byteLength": 107520,
      "byteOffset": 0,
      "name": "floatBufferViews",
      "target": 34963
    },
    {
      "buffer": 0,
      "byteLength": 114768,
      "byteOffset": 107520,
      "byteStride": 12,
      "name": "floatBufferViews",
      "target": 34962
    }
  ],
  "buffers": [
    {
      "byteLength": 222288,
      "uri": "scene.bin"
    }
  ],
  "extensionsRequired": [
    "KHR_materials_pbrSpecularGlossiness"
  ],
  "extensionsUsed": [
    "KHR_materials_pbrSpecularGlossiness"
  ],
  "materials": [
    {
      "doubleSided": true,
      "emissiveFactor": [
        0,
        0,
        0
      ],
      "extensions": {
        "KHR_materials_pbrSpecularGlossiness": {
          "diffuseFactor": [
            1,
            1,
            1,
            1
          ],
          "glossinessFactor": 0.48999999999999999,
          "specularFactor": [
            1,
            1,
            1
          ]
        }
      },
      "name": "White"
    },
    {
      "doubleSided": true,
      "emissiveFactor": [
        0,
        0,
        0
      ],
      "extensions": {
        "KHR_materials_pbrSpecularGlossiness": {
          "diffuseFactor": [
            0.063159648099999993,
            0.0525296533,
            0.0525296533,
            1
          ],
          "glossinessFactor": 0.71999999999999997,
          "specularFactor": [
            0,
            0,
            0
          ]
        }
      },
      "name": "Black"
    }
  ],
  "meshes": [
    {
      "name": "Icosphere",
      "primitives": [
        {
          "attributes": {
            "NORMAL": 1,
            "POSITION": 0
          },
          "indices": 2,
          "material": 0,
          "mode": 4
        }
      ]
    },
    {
      "name": "Icosphere",
      "primitives": [
        {
          "attributes": {
            "NORMAL": 4,
            "POSITION": 3
          },
          "indices": 5,
          "material": 1,
          "mode": 4
        }
      ]
    }
  ],
  "nodes": [
    {
      "children": [
        1
      ],
      "name": "RootNode (gltf orientation matrix)",
      "rotation": [
        -0.70710678118654746,
        -0,
        -0,
        0.70710678118654757
      ]
    },
    {
      "children": [
        2
      ],
      "name": "RootNode (model correction matrix)"
    },
    {
      "children": [
        3,
        5
      ],
      "name": "Root"
    },
    {
      "children": [
        4
      ],
      "matrix": [
        -0.29086000000000006,
        0.95517000000000007,
        -0.05519000000000001,
        0,
        -0.77110000000000001,
        -0.19988000000000003,
        0.60452000000000006,
        0,
        0.56639000000000006,
        0.21839000000000003,
        0.7946700000000001,
        0,
        -9.5770199999999992,
        1.00545,
        5.9038600000000008,
        1
      ],
      "name": "Lamp"
    },
    {
      "name": "Lamp"
    },
    {
      "children": [
        6
      ],
      "name": "Icosphere"
    },
    {
      "children": [
        7,
        8
      ],
      "name": "Geode"
    },
    {
      "mesh": 0,
      "name": "Icosphere"
    },
    {
      "mesh": 1,
      "name": "Icosphere"
    }
  ],
  "scene": 0,
  "scenes": [
    {
      "name": "OSG_Scene",
      "nodes": [
        0
      ]
    }
  ]
}

